<svg width="20" height="20" fill="none" xmlns="http://www.w3.org/2000/svg"><path d="M13.75 0h-7.5A6.25 6.25 0 0 0 0 6.25v7.5C0 17.2 2.8 20 6.25 20h7.5C17.2 20 20 17.2 20 13.75v-7.5C20 2.8 17.2 0 13.75 0Zm4.37 13.75a4.38 4.38 0 0 1-4.37 4.38h-7.5a4.38 4.38 0 0 1-4.38-4.38v-7.5a4.38 4.38 0 0 1 4.38-4.38h7.5a4.38 4.38 0 0 1 4.37 4.38v7.5Z" fill="#000"/><path d="M10 5a5 5 0 1 0 0 10 5 5 0 0 0 0-10Zm0 8.13a3.13 3.13 0 1 1 0-6.26 3.13 3.13 0 0 1 0 6.25ZM15.37 5.3a.67.67 0 1 0 0-1.34.67.67 0 0 0 0 1.33Z" fill="#000"/></svg>